<svg xmlns="http://www.w3.org/2000/svg" xmlns:xlink="http://www.w3.org/1999/xlink" width="12.5" height="12.5" viewBox="0 0 12.5 12.5">
  <defs>
    <clipPath id="clip-path">
      <rect width="12.5" height="12.5" fill="none"/>
    </clipPath>
  </defs>
  <g id="icon_web" clip-path="url(#clip-path)">
    <path id="web_icon" d="M13.85,7a6.25,6.25,0,1,0,6.25,6.25A6.252,6.252,0,0,0,13.85,7Zm-5.4,6.25a5.008,5.008,0,0,1,.3-1.725c.575.125,1.2.25,1.825.325a12.788,12.788,0,0,0-.075,1.4,11.393,11.393,0,0,0,.15,1.875A14.422,14.422,0,0,1,8.675,14.7,4.093,4.093,0,0,1,8.45,13.25Zm2.85,0a11.445,11.445,0,0,1,.075-1.325c.675.075,1.35.1,2.05.125v3.325q-1.012-.037-1.95-.15A12.091,12.091,0,0,1,11.3,13.25Zm2.975-5.325c.85.325,1.575,1.575,1.925,3.225-.625.05-1.275.075-1.925.075Zm-.825,0v3.3c-.65-.025-1.3-.05-1.925-.1C11.875,9.475,12.6,8.225,13.45,7.925Zm0,8.275v2.375a3.616,3.616,0,0,1-1.725-2.5A12.725,12.725,0,0,0,13.45,16.2Zm.825,2.375v-2.35h.2c.5,0,1-.025,1.5-.05A3.5,3.5,0,0,1,14.275,18.575Zm.2-3.175h-.2V12.075a18.458,18.458,0,0,0,2.05-.1A10.291,10.291,0,0,1,16.4,13.25a11.3,11.3,0,0,1-.2,2.1C15.625,15.375,15.05,15.4,14.475,15.4Zm2.675-3.5c.65-.075,1.275-.175,1.85-.3a5.176,5.176,0,0,1,.25,1.65,5.047,5.047,0,0,1-.3,1.75c-.6.125-1.25.2-1.925.275A10.357,10.357,0,0,0,17.2,13.25,7.93,7.93,0,0,0,17.15,11.9Zm1.525-1.075c-.525.1-1.075.175-1.675.25a7.249,7.249,0,0,0-1.15-2.85A5.33,5.33,0,0,1,18.675,10.825Zm-6.85-2.6a7.213,7.213,0,0,0-1.125,2.8c-.575-.075-1.125-.175-1.625-.275A5.323,5.323,0,0,1,11.825,8.225ZM9,15.65c.575.125,1.175.25,1.8.325a6.17,6.17,0,0,0,1.025,2.275A5.412,5.412,0,0,1,9,15.65Zm6.875,2.625a6.585,6.585,0,0,0,.975-2.15c.575-.05,1.15-.125,1.7-.2A5.465,5.465,0,0,1,15.875,18.275Z" transform="translate(-7.6 -7)" fill="#4d4d4d"/>
  </g>
</svg>
