<svg xmlns="http://www.w3.org/2000/svg" xmlns:xlink="http://www.w3.org/1999/xlink" width="12.5" height="14" viewBox="0 0 12.5 14">
  <defs>
    <clipPath id="clip-path">
      <rect width="12.5" height="14" fill="none"/>
    </clipPath>
  </defs>
  <g id="icon_tell" clip-path="url(#clip-path)">
    <path id="tell_icon" d="M29.659,23.894c-.869-.7-2.615-2.034-2.749-2.1-.56-.3-1.343,1.123-1.575,1.485h0a.848.848,0,0,1-1.385.088v-.011h0a30.853,30.853,0,0,1-2.9-3.4c-.679-.9-.153-1.39-.01-1.5l.033-.023h0a4.409,4.409,0,0,0,.374-.286,3.746,3.746,0,0,0,1.042-1.576.758.758,0,0,0-.1-.721l-1.681-2.268a.771.771,0,0,0-1.072-.165l-.01.007a5.438,5.438,0,0,0-1.972,2.463,5.441,5.441,0,0,0-.177.837,5.509,5.509,0,0,0,.177,2.022,9.56,9.56,0,0,0,.925,2.287,12.315,12.315,0,0,0,1.953,2.646s.84.934,1.506,1.54a7.547,7.547,0,0,0,2.968,1.8A3.718,3.718,0,0,0,27,27.2a3.625,3.625,0,0,0,1.506-.791,5.525,5.525,0,0,0,1.343-1.534A.759.759,0,0,0,29.659,23.894Z" transform="translate(-17.452 -13.271)" fill="#4d4d4d"/>
  </g>
</svg>
